<svg width="800.0000000000001" height="600" xmlns="http://www.w3.org/2000/svg">
 <!-- Created with Method Draw - http://github.com/duopixel/Method-Draw/ -->

 <g>
  <title>background</title>
  <rect fill="#355fde" id="canvas_background" height="602" width="802" y="-1" x="-1"/>
  <g display="none" overflow="visible" y="0" x="0" height="100%" width="100%" id="canvasGrid">
   <rect fill="url(#gridpattern)" stroke-width="0" y="0" x="0" height="100%" width="100%"/>
  </g>
 </g>
 <g>
  <title>Layer 1</title>
  <g stroke="null" id="svg_5">
   <path stroke="null" fill="#ffffff" id="svg_4" d="m477.95641,277.49096c0,46.23191 -37.48363,83.71554 -83.71554,83.71554s-83.71554,-37.48363 -83.71554,-83.71554l0,-146.5022c0,-46.23191 37.48363,-83.71554 83.71554,-83.71554s83.71554,37.48363 83.71554,83.71554l0,146.5022zm83.71554,-41.85777l0,41.85777c0,92.46382 -74.96727,167.43108 -167.43108,167.43108s-167.43108,-74.96727 -167.43108,-167.43108l0,-41.85777l41.85777,0l0,41.85777c0,69.25368 56.31963,125.57331 125.57331,125.57331s125.57331,-56.31963 125.57331,-125.57331l0,-41.85777l41.85777,0zm-146.5022,272.07551l0,-41.85777l-41.85777,0l0,41.85777l-83.71554,0l0,41.85777l209.28885,0l0,-41.85777l-83.71554,0z"/>
  </g>
  <g stroke="null" id="svg_10">
   <path fill="#ffffff" stroke="null" id="svg_9" d="m136.49152,179.42171l31.29496,31.2839l-103.27336,101.4598l103.27336,101.37133l-31.29496,31.2839l-134.57937,-132.65523l134.57937,-132.7437z"/>
  </g>
  <g transform="rotate(-179.9314422607422 715.1506347656251,312.12115478515625) " stroke="null" id="svg_12">
   <path fill="#ffffff" stroke="null" id="svg_11" d="m766.79289,179.42171l31.29496,31.2839l-103.27336,101.4598l103.27336,101.37133l-31.29496,31.2839l-134.57937,-132.65523l134.57937,-132.7437z"/>
  </g>
 </g>
</svg>