<svg xmlns="http://www.w3.org/2000/svg" width="24" height="24" viewBox="0 0 24 24">
<symbol id="add" viewBox="0 0 24 24"><path d="m21 3.998c0-.478-.379-1-1-1h-16c-.62 0-1 .519-1 1v16c0 .621.52 1 1 1h16c.478 0 1-.379 1-1zm-16.5.5h15v15h-15zm6.75 6.752h-3.5c-.414 0-.75.336-.75.75s.336.75.75.75h3.5v3.5c0 .414.336.75.75.75s.75-.336.75-.75v-3.5h3.5c.414 0 .75-.336.75-.75s-.336-.75-.75-.75h-3.5v-3.5c0-.414-.336-.75-.75-.75s-.75.336-.75.75z" fill-rule="nonzero"/></symbol>
<symbol id="add_list" viewBox="0 0 24 24"><path d="m20 20h-15.25c-.414 0-.75.336-.75.75s.336.75.75.75h15.75c.53 0 1-.47 1-1v-15.75c0-.414-.336-.75-.75-.75s-.75.336-.75.75zm-1-17c0-.478-.379-1-1-1h-15c-.62 0-1 .519-1 1v15c0 .621.52 1 1 1h15c.478 0 1-.379 1-1zm-15.5.5h14v14h-14zm6.25 6.25h-3c-.414 0-.75.336-.75.75s.336.75.75.75h3v3c0 .414.336.75.75.75s.75-.336.75-.75v-3h3c.414 0 .75-.336.75-.75s-.336-.75-.75-.75h-3v-3c0-.414-.336-.75-.75-.75s-.75.336-.75.75z" fill-rule="nonzero"/></symbol>
<symbol id="audio" viewBox="0 0 24 24"><path d="M5 17h-5v-10h5v10zm2-10v10l9 5v-20l-9 5zm17 4h-5v2h5v-2zm-1.584-6.232l-4.332 2.5 1 1.732 4.332-2.5-1-1.732zm1 12.732l-4.332-2.5-1 1.732 4.332 2.5 1-1.732z"/></symbol>
<symbol id="button" viewBox="0 0 512 512"><path d="M407,76H105C47.109,76,0,123.109,0,181v150c0,57.891,47.109,105,105,105h302c57.891,0,105-47.109,105-105V181C512,123.109,464.891,76,407,76z"/></symbol>
<symbol id="content" viewBox="0 0 24 24"><path d="m17.5 11c2.484 0 4.5 2.016 4.5 4.5s-2.016 4.5-4.5 4.5-4.5-2.016-4.5-4.5 2.016-4.5 4.5-4.5zm-5.979 5c.043.522.153 1.025.321 1.5h-9.092c-.414 0-.75-.336-.75-.75s.336-.75.75-.75zm3.704-.024 1.442 1.285c.095.085.215.127.333.127.136 0 .271-.055.37-.162l2.441-2.669c.088-.096.131-.217.131-.336 0-.274-.221-.499-.5-.499-.136 0-.271.055-.37.162l-2.108 2.304-1.073-.956c-.096-.085-.214-.127-.333-.127-.277 0-.5.224-.5.499 0 .137.056.273.167.372zm-2.598-3.976c-.328.456-.594.96-.785 1.5h-9.092c-.414 0-.75-.336-.75-.75s.336-.75.75-.75zm7.373-3.25c0-.414-.336-.75-.75-.75h-16.5c-.414 0-.75.336-.75.75s.336.75.75.75h16.5c.414 0 .75-.336.75-.75zm0-4c0-.414-.336-.75-.75-.75h-16.5c-.414 0-.75.336-.75.75s.336.75.75.75h16.5c.414 0 .75-.336.75-.75z" fill-rule="nonzero"/></symbol>
<symbol id="cursor_24" viewBox="0 0 24 24"><path d="M12 10c1.104 0 2 .896 2 2s-.896 2-2 2-2-.896-2-2 .896-2 2-2zm-3.857 3c-.084-.321-.143-.652-.143-1s.059-.679.143-1h-2.143v-4l-6 5 6 5v-4h2.143zm7.714-2c.084.321.143.652.143 1s-.059.679-.143 1h2.143v4l6-5-6-5v4h-2.143zm-2.857 4.857c-.321.084-.652.143-1 .143s-.679-.059-1-.143v2.143h-4l5 6 5-6h-4v-2.143zm-2-7.714c.321-.084.652-.143 1-.143s.679.059 1 .143v-2.143h4l-5-6-5 6h4v2.143z"/></symbol>
<symbol id="delete" viewBox="0 0 24 24"><path d="M23 20.168l-8.185-8.187 8.185-8.174-2.832-2.807-8.182 8.179-8.176-8.179-2.81 2.81 8.186 8.196-8.186 8.184 2.81 2.81 8.203-8.192 8.18 8.192z"/></symbol>
<symbol id="favorite" viewBox="0 0 24 24"><path d="m11.322 2.923c.126-.259.39-.423.678-.423.289 0 .552.164.678.423.974 1.998 2.65 5.44 2.65 5.44s3.811.524 6.022.829c.403.055.65.396.65.747 0 .19-.072.383-.231.536-1.61 1.538-4.382 4.191-4.382 4.191s.677 3.767 1.069 5.952c.083.462-.275.882-.742.882-.122 0-.244-.029-.355-.089-1.968-1.048-5.359-2.851-5.359-2.851s-3.391 1.803-5.359 2.851c-.111.06-.234.089-.356.089-.465 0-.825-.421-.741-.882.393-2.185 1.07-5.952 1.07-5.952s-2.773-2.653-4.382-4.191c-.16-.153-.232-.346-.232-.535 0-.352.249-.694.651-.748 2.211-.305 6.021-.829 6.021-.829s1.677-3.442 2.65-5.44zm.678 2.033-2.361 4.792-5.246.719 3.848 3.643-.948 5.255 4.707-2.505 4.707 2.505-.951-5.236 3.851-3.662-5.314-.756z" fill-rule="nonzero"/></symbol>
<symbol id="form" viewBox="0 0 24 24"><path d="M2 16v-8h12v-2h-14v12h14v-2h-12zm18-10v2h2v8h-2v2h4v-12h-4zm-2 12.301c0 1.699 1.359 1.621 2 1.699v1h-6v-1c.641-.078 2 0 2-1.699v-12.602c0-1.699-1.359-1.621-2-1.699v-1h6v1c-.641.078-2 0-2 1.699v12.602z"/></symbol>
<symbol id="home" viewBox="0 0 24 24"><path d="M20 7.093v-5.093h-3v2.093l3 3zm4 5.907l-12-12-12 12h3v10h7v-5h4v5h7v-10h3zm-5 8h-3v-5h-8v5h-3v-10.26l7-6.912 7 6.99v10.182z"/></symbol>
<symbol id="help" viewBox="0 0 24 24"><path d="M12 0c-6.627 0-12 5.373-12 12s5.373 12 12 12 12-5.373 12-12-5.373-12-12-12zm0 22c-5.514 0-10-4.486-10-10s4.486-10 10-10 10 4.486 10 10-4.486 10-10 10zm0-18.8c-4.853 0-8.8 3.947-8.8 8.8s3.947 8.8 8.8 8.8 8.8-3.947 8.8-8.8-3.947-8.8-8.8-8.8zm0 15.05c-.689 0-1.25-.56-1.25-1.25s.561-1.25 1.25-1.25c.691 0 1.25.56 1.25 1.25s-.559 1.25-1.25 1.25zm1.961-5.928c-.904.975-.947 1.514-.935 2.178h-2.005c-.007-1.475.02-2.125 1.432-3.468.572-.544 1.024-.975.962-1.821-.058-.805-.73-1.226-1.364-1.226-.709 0-1.538.527-1.538 2.013h-2.011c0-2.4 1.41-3.95 3.59-3.95 1.036 0 1.942.339 2.551.955.57.578.865 1.372.854 2.298-.018 1.383-.859 2.291-1.536 3.021z"/></symbol>
<symbol id="image" viewBox="0 0 24 24"><path d="M5 8.5c0-.828.672-1.5 1.5-1.5s1.5.672 1.5 1.5c0 .829-.672 1.5-1.5 1.5s-1.5-.671-1.5-1.5zm9 .5l-2.519 4-2.481-1.96-4 5.96h14l-5-8zm8-4v14h-20v-14h20zm2-2h-24v18h24v-18z"/></symbol>
<symbol id="menu" viewBox="0 0 24 24"><path d="M24 6h-24v-4h24v4zm0 4h-24v4h24v-4zm0 8h-24v4h24v-4z"/></symbol>
<symbol id="projects" viewBox="0 0 24 24"><path d="M6 22v-16h16v7.543c0 4.107-6 2.457-6 2.457s1.518 6-2.638 6h-7.362zm18-7.614v-10.386h-20v20h10.189c3.163 0 9.811-7.223 9.811-9.614zm-10 1.614h-5v-1h5v1zm5-4h-10v1h10v-1zm0-3h-10v1h10v-1zm3-6h-19v19h-1v-20h20v1zm-2-2h-19v19h-1v-20h20v1z"/></symbol>
<symbol id="question" viewBox="0 0 24 24"><path d="M12 3c5.514 0 10 3.592 10 8.007 0 4.917-5.145 7.961-9.91 7.961-1.937 0-3.383-.397-4.394-.644-1 .613-1.595 1.037-4.272 1.82.535-1.373.723-2.748.602-4.265-.838-1-2.025-2.4-2.025-4.872-.001-4.415 4.485-8.007 9.999-8.007zm0-2c-6.338 0-12 4.226-12 10.007 0 2.05.738 4.063 2.047 5.625.055 1.83-1.023 4.456-1.993 6.368 2.602-.47 6.301-1.508 7.978-2.536 1.418.345 2.775.503 4.059.503 7.084 0 11.91-4.837 11.91-9.961-.001-5.811-5.702-10.006-12.001-10.006zm1.024 13.975c0 .566-.458 1.025-1.024 1.025-.565 0-1.024-.459-1.024-1.025 0-.565.459-1.024 1.024-1.024.566 0 1.024.459 1.024 1.024zm1.141-8.192c-.498-.505-1.241-.783-2.09-.783-1.786 0-2.941 1.271-2.941 3.237h1.647c0-1.217.68-1.649 1.261-1.649.519 0 1.07.345 1.117 1.004.052.694-.319 1.046-.788 1.493-1.157 1.1-1.179 1.633-1.173 2.842h1.643c-.01-.544.025-.986.766-1.785.555-.598 1.245-1.342 1.259-2.477.008-.758-.233-1.409-.701-1.882z"/></symbol>
<symbol id="star" viewBox="0 0 24 24"><path d="M12 2c5.514 0 10 4.486 10 10s-4.486 10-10 10-10-4.486-10-10 4.486-10 10-10zm0-2c-6.627 0-12 5.373-12 12s5.373 12 12 12 12-5.373 12-12-5.373-12-12-12zm-1.834 9.686l-4.166.575 3.032 2.914-.74 4.139 3.708-1.982 3.708 1.983-.74-4.139 3.032-2.915-4.166-.575-1.834-3.784-1.834 3.784z"/></symbol>
<symbol id="search_folder" viewBox="0 0 24 24"><path d="M19.757 20.171c-.791.524-1.739.829-2.757.829-2.76 0-5-2.24-5-5s2.24-5 5-5 5 2.24 5 5c0 1.018-.305 1.966-.829 2.757l2.829 2.829-1.414 1.414-2.829-2.829zm-7.654.829h-12.103v-20h7c1.695 1.942 2.371 3 4 3h11v7.103c-.574-.586-1.25-1.072-2-1.428v-3.675h-9c-2.339 0-3.537-1.388-4.917-3h-4.083v16h8.675c.356.75.842 1.426 1.428 2zm4.897-8c1.656 0 3 1.344 3 3s-1.344 3-3 3-3-1.344-3-3 1.344-3 3-3z"/></symbol>
<symbol id="text" viewBox="0 0 24 24"><path d="M22 0h-20v6h1.999c0-1.174.397-3 2.001-3h4v16.874c0 1.174-.825 2.126-2 2.126h-1v2h9.999v-2h-.999c-1.174 0-2-.952-2-2.126v-16.874h4c1.649 0 2.02 1.826 2.02 3h1.98v-6z"/></symbol>
<symbol id="users" viewBox="0 0 24 24"><path d="M17.997 18h-11.995l-.002-.623c0-1.259.1-1.986 1.588-2.33 1.684-.389 3.344-.736 2.545-2.209-2.366-4.363-.674-6.838 1.866-6.838 2.491 0 4.226 2.383 1.866 6.839-.775 1.464.826 1.812 2.545 2.209 1.49.344 1.589 1.072 1.589 2.333l-.002.619zm4.811-2.214c-1.29-.298-2.49-.559-1.909-1.657 1.769-3.342.469-5.129-1.4-5.129-1.265 0-2.248.817-2.248 2.324 0 3.903 2.268 1.77 2.246 6.676h4.501l.002-.463c0-.946-.074-1.493-1.192-1.751zm-22.806 2.214h4.501c-.021-4.906 2.246-2.772 2.246-6.676 0-1.507-.983-2.324-2.248-2.324-1.869 0-3.169 1.787-1.399 5.129.581 1.099-.619 1.359-1.909 1.657-1.119.258-1.193.805-1.193 1.751l.002.463z"/></symbol>
<symbol id="youtube" viewBox="0 0 24 24"><path d="M19.615 3.184c-3.604-.246-11.631-.245-15.23 0-3.897.266-4.356 2.62-4.385 8.816.029 6.185.484 8.549 4.385 8.816 3.6.245 11.626.246 15.23 0 3.897-.266 4.356-2.62 4.385-8.816-.029-6.185-.484-8.549-4.385-8.816zm-10.615 12.816v-8l8 3.993-8 4.007z"/></symbol>
</svg>