<svg xmlns="http://www.w3.org/2000/svg" width="24" height="24" viewBox="0 0 24 24">
<symbol id="arrow" viewBox="0 0 24 24"><path d="M13.025 1l-2.847 2.828 6.176 6.176h-16.354v3.992h16.354l-6.176 6.176 2.847 2.828 10.975-11z"/></symbol>
<symbol id="audio" viewBox="0 0 24 24"><path d="M6 7l8-5v20l-8-5v-10zm-6 10h4v-10h-4v10zm20.264-13.264l-1.497 1.497c1.847 1.783 2.983 4.157 2.983 6.767 0 2.61-1.135 4.984-2.983 6.766l1.498 1.498c2.305-2.153 3.735-5.055 3.735-8.264s-1.43-6.11-3.736-8.264zm-.489 8.264c0-2.084-.915-3.967-2.384-5.391l-1.503 1.503c1.011 1.049 1.637 2.401 1.637 3.888 0 1.488-.623 2.841-1.634 3.891l1.503 1.503c1.468-1.424 2.381-3.309 2.381-5.394z"/></symbol>
<symbol id="audio_off" viewBox="0 0 24 24"><path d="M19 7.358v15.642l-8-5v-.785l8-9.857zm3-6.094l-1.548-1.264-3.446 4.247-6.006 3.753v3.646l-2 2.464v-6.11h-4v10h.843l-3.843 4.736 1.548 1.264 18.452-22.736z"/></symbol>
<symbol id="check" viewBox="0 0 24 24"><path d="M9 22l-10-10.598 2.798-2.859 7.149 7.473 13.144-14.016 2.909 2.806z"/></symbol>
<symbol id="microphone" viewBox="0 0 24 24"><path d="M16 11c0 2.209-1.791 4-4 4s-4-1.791-4-4v-7c0-2.209 1.791-4 4-4s4 1.791 4 4v7zm4-2v2c0 4.418-3.582 8-8 8s-8-3.582-8-8v-2h2v2c0 3.309 2.691 6 6 6s6-2.691 6-6v-2h2zm-7 13v-2h-2v2h-4v2h10v-2h-4z"/></symbol>
<symbol id="next" viewBox="0 0 24 24"><path d="M12 0c-6.627 0-12 5.373-12 12s5.373 12 12 12 12-5.373 12-12-5.373-12-12-12zm-1.568 18.005l-1.414-1.415 4.574-4.59-4.574-4.579 1.414-1.416 5.988 5.995-5.988 6.005z"/></symbol>
<symbol id="pause" viewBox="0 0 24 24"><path d="M12 2c5.514 0 10 4.486 10 10s-4.486 10-10 10-10-4.486-10-10 4.486-10 10-10zm0-2c-6.627 0-12 5.373-12 12s5.373 12 12 12 12-5.373 12-12-5.373-12-12-12zm-1 17h-3v-10h3v10zm5-10h-3v10h3v-10z"/></symbol>
<symbol id="play" viewBox="0 0 24 24"><path d="M12 2c5.514 0 10 4.486 10 10s-4.486 10-10 10-10-4.486-10-10 4.486-10 10-10zm0-2c-6.627 0-12 5.373-12 12s5.373 12 12 12 12-5.373 12-12-5.373-12-12-12zm-3 18v-12l10 6-10 6z"/></symbol>
<symbol id="prev" viewBox="0 0 24 24"><path d="M0 12c0 6.627 5.373 12 12 12s12-5.373 12-12-5.373-12-12-12-12 5.373-12 12zm7.58 0l5.988-5.995 1.414 1.416-4.574 4.579 4.574 4.59-1.414 1.416-5.988-6.006z"/></symbol>
</svg>